<?xml version="1.0"?>
<svg version="1.1" xmlns="http://www.w3.org/2000/svg" width="400" height="200" style="border: dashed 2px #aaa"><path fill="#326dc7" d="M17.978515625,136.9140625q0-2.197265625,0.2197265625-5.2490234375t1.0009765625-5.0537109375q0.29296875-0.68359375,1.2451171875-1.3427734375t2.001953125-0.8056640625t1.85546875,0.244140625t0.8056640625,1.708984375q0,2.294921875-0.09765625,5.810546875l0,1.513671875q0,2.685546875,0.244140625,5.126953125q0.341796875,3.22265625,1.46484375,5.419921875q0.9765625,2.001953125,3.076171875,2.001953125l0.390625,0q2.880859375-0.1953125,4.248046875-2.392578125t1.85546875-5.224609375q0.439453125-2.783203125,0.439453125-5.859375l0-0.5859375q-0.048828125-3.41796875-0.048828125-6.005859375q0-10.302734375-0.68359375-20.654296875t-0.68359375-20.751953125q0-1.708984375-0.146484375-3.7109375q-0.048828125-0.732421875-0.048828125-1.46484375q0-1.171875,0.146484375-2.24609375q0.244140625-1.708984375,1.2451171875-2.8564453125t3.3935546875-1.1474609375q1.318359375,0,2.4169921875,0.3173828125t1.9775390625,1.2939453125q1.123046875,12.6953125,1.85546875,25.8056640625t0.732421875,25.9033203125q0,4.39453125-0.732421875,8.837890625t-2.685546875,8.0078125t-5.419921875,5.810546875t-8.837890625,2.24609375q-3.22265625,0-5.37109375-1.1474609375t-3.4423828125-3.1494140625t-1.85546875-4.6630859375t-0.5615234375-5.7373046875z M54.87646484375,127.490234375q0-0.9765625,0.2197265625-2.587890625t0.5126953125-3.1982421875t0.68359375-2.9541015625t0.927734375-1.7578125q0.390625-0.390625,1.3427734375-0.78125t2.001953125-0.5615234375t1.953125,0.146484375t1.0986328125,1.2939453125q-0.68359375,0.87890625-1.2451171875,3.0029296875t-0.8544921875,4.7119140625q-0.244140625,2.197265625-0.244140625,4.541015625l0,0.830078125q0.048828125,2.734375,0.48828125,5.029296875t1.3427734375,3.7841796875t2.5146484375,1.4892578125q3.41796875,0,6.25-3.1494140625t5.029296875-7.6904296875t3.857421875-9.6435546875t2.83203125-8.9111328125q0.29296875-1.123046875,1.3916015625-1.513671875t2.3681640625-0.2685546875t2.2705078125,0.6103515625t1.1962890625,1.171875q-0.9765625,8.203125-1.5380859375,16.40625t-0.5615234375,16.50390625q0,1.611328125,0.146484375,2.9541015625t-0.146484375,2.294921875t-1.2939453125,1.513671875t-3.1982421875,0.5615234375q-0.48828125,0-1.2451171875-0.09765625t-1.5625-0.3173828125t-1.3671875-0.6591796875t-0.5615234375-1.025390625q0-3.61328125,0.2685546875-7.421875t0.7568359375-7.373046875q-1.318359375,1.904296875-2.9052734375,3.7841796875t-3.4912109375,3.3935546875t-4.1015625,2.4169921875t-4.736328125,0.9033203125q-3.61328125,0-5.6884765625-1.708984375t-3.125-4.2724609375t-1.318359375-5.5908203125t-0.2685546875-5.859375z M100.8076171875,149.12109375q0-1.416015625,0.1220703125-2.978515625t0.2197265625-2.9296875l0.29296875-7.32421875q0.48828125-8.7890625,1.1962890625-17.28515625t1.1962890625-17.1875q0.29296875-4.78515625,0.439453125-9.3994140625t0.439453125-9.3994140625q-0.1953125-0.390625-0.1953125-0.537109375q0-0.68359375,0.5126953125-1.07421875t1.1962890625-0.6591796875t1.4404296875-0.3662109375t1.1474609375-0.09765625l1.123046875,0q1.513671875,0.1953125,2.197265625,0.9521484375t0.87890625,1.806640625t0.09765625,2.24609375t-0.09765625,2.2216796875q0,7.080078125-0.341796875,14.4287109375t-0.78125,14.74609375t-0.8056640625,14.794921875t-0.3662109375,14.6240234375l0,3.41796875q0,2.294921875-1.2939453125,3.02734375t-3.5888671875,0.732421875q-2.001953125,0-3.515625-0.87890625t-1.513671875-2.880859375z M123.20361328125,130.615234375q0-4.4921875,1.0498046875-8.8134765625t1.7822265625-8.6181640625q0.1953125-1.123046875,1.5380859375-1.3916015625t2.2705078125-0.2685546875q1.611328125,0,2.587890625,0.48828125q0.390625,0.1953125,0.732421875,0.439453125t0.341796875,0.634765625q0,4.19921875-1.0009765625,8.203125t-1.0009765625,8.49609375q0,1.513671875,0.2197265625,2.8564453125t0.4150390625,2.6611328125l0.29296875,1.416015625q0,0.390625,0.048828125,0.68359375t0.146484375,0.68359375q0,0.87890625-1.2451171875,1.1962890625t-2.1728515625,0.3173828125q-1.416015625,0-2.6123046875-0.5615234375t-1.8798828125-1.9287109375l-0.68359375-1.416015625q-0.5859375-1.123046875-0.5859375-2.5146484375t-0.244140625-2.5634765625z M126.32861328125,101.220703125l0-0.927734375q0-2.294921875,1.1474609375-4.1015625t3.4423828125-1.806640625q0.29296875,0,0.5615234375,0.048828125t0.5615234375,0.048828125q0.5859375,0.09765625,1.5380859375,0.4638671875t0.9521484375,1.1474609375l0,0.09765625q-0.1953125,0.390625-0.244140625,0.8056640625t-0.244140625,0.7080078125l0.09765625-0.09765625q-0.5859375,1.513671875-0.9521484375,2.44140625t-0.8056640625,1.4892578125t-1.0986328125,0.8056640625t-1.8798828125,0.244140625q-0.1953125,0-0.68359375-0.048828125t-1.0498046875-0.1953125t-0.9521484375-0.390625t-0.390625-0.732421875z M144.525390625,131.787109375q0-3.3203125,0.9033203125-6.396484375t2.7099609375-5.4931640625t4.5166015625-3.857421875t6.2744140625-1.4404296875q2.197265625,0,4.8583984375,0.6591796875t5.0048828125,1.953125t3.90625,3.2958984375t1.5625,4.58984375q0,1.220703125-0.4150390625,1.85546875t-1.6845703125,0.634765625l-0.537109375-0.09765625q1.416015625,3.80859375,2.44140625,7.8125t2.001953125,8.0078125q0.390625,0.78125,0.5859375,1.3916015625t0.1953125,1.1962890625q0,0.78125-0.439453125,1.2939453125t-1.1474609375,0.7568359375t-1.46484375,0.341796875t-1.3427734375,0.09765625q-2.099609375,0-3.1494140625-0.732421875t-1.513671875-2.001953125t-0.5615234375-2.8564453125t-0.390625-3.1982421875q-0.5859375,1.904296875-1.5380859375,3.7109375t-2.24609375,3.2470703125t-3.0517578125,2.294921875t-3.955078125,0.8544921875q-3.22265625,0-5.419921875-1.85546875t-3.5400390625-4.5654296875t-1.953125-5.7861328125t-0.6103515625-5.712890625z M151.458984375,131.103515625q0,1.806640625,0.244140625,3.80859375t0.8056640625,3.955078125t1.4404296875,3.6865234375t2.197265625,3.0517578125q2.392578125-2.587890625,3.5400390625-6.298828125t2.05078125-7.1533203125t2.05078125-5.908203125t3.5400390625-2.4658203125q1.513671875,0,2.5390625,0.537109375q-0.48828125-1.220703125-1.611328125-2.3681640625t-2.5146484375-2.099609375t-2.880859375-1.5625t-2.8076171875-0.6103515625q-0.390625,0-0.9033203125,0.1220703125t-0.8056640625,0.0244140625q-2.001953125,0.5859375-3.2958984375,2.0263671875t-2.099609375,3.3935546875t-1.1474609375,4.00390625t-0.341796875,3.857421875z M186.89208984375,132.03125l0-1.416015625q0-1.7578125,0.09765625-3.3203125q0.09765625-2.197265625,0.09765625-3.61328125q0-0.78125,0.09765625-1.7822265625t0.48828125-1.5869140625q0.48828125-0.48828125,1.1474609375-1.0009765625t1.4404296875-0.5126953125q2.490234375,0,3.90625,0.5615234375t1.513671875,2.3193359375l0.1953125,1.513671875q0.87890625-2.099609375,2.34375-5.2001953125t3.3935546875-5.908203125t4.345703125-4.78515625t5.1025390625-1.9775390625q2.490234375,0,4.1015625,2.34375t2.5634765625,5.9814453125t1.3427734375,8.10546875t0.537109375,8.7646484375t0.1953125,7.8369140625t0.341796875,5.3466796875q0.1953125,1.513671875,0.6591796875,3.1982421875t0.4638671875,3.1005859375q0,0.390625-0.5615234375,0.7568359375t-1.1962890625,0.6103515625t-1.2939453125,0.390625t-0.9521484375,0.146484375q-1.904296875,0-2.7099609375-2.8564453125t-1.0009765625-7.1533203125t-0.1953125-9.3017578125t-0.341796875-9.3017578125t-1.3916015625-7.1533203125t-3.3447265625-2.9541015625q-2.099609375,0-4.345703125,2.7099609375t-3.857421875,7.2021484375q-1.5625,4.4921875-2.1484375,10.205078125q-0.1953125,1.806640625-0.1953125,3.61328125q0,3.955078125,0.830078125,7.91015625q0.09765625,0.68359375-0.5615234375,1.025390625t-1.6357421875,0.537109375t-1.9775390625,0.244140625t-1.5380859375,0.048828125q-1.904296875,0-3.0517578125-1.3427734375t-1.7822265625-3.4423828125t-0.8544921875-4.7119140625t-0.2685546875-5.1513671875z M231.2607421875,76.123046875q0-0.9765625,1.513671875-1.3916015625t2.490234375-0.4150390625q1.123046875,0,2.4658203125,0.29296875t1.6357421875,1.513671875q1.416015625,5.712890625,2.1728515625,11.6455078125t1.1474609375,11.9384765625t0.634765625,11.9384765625t0.537109375,11.7431640625q1.318359375-5.810546875,2.7099609375-11.5478515625t3.6376953125-11.4501953125l0-3.90625q0-2.490234375,1.7333984375-3.5888671875t4.6630859375-1.0986328125q0.29296875,0,1.3427734375,0.146484375t1.0498046875,0.9765625q-0.1953125,0.5859375-0.4638671875,1.123046875t-0.2685546875,1.171875q0,7.421875,1.7578125,15.2099609375t3.466796875,15.1611328125q0.9765625-6.298828125,2.24609375-12.548828125t2.63671875-12.451171875q1.806640625-8.30078125,2.7587890625-13.7939453125t1.806640625-8.69140625t1.85546875-4.541015625t2.8076171875-1.3427734375q1.123046875-0.09765625,2.099609375,0.390625t0.78125,1.611328125q-3.515625,16.9921875-6.5673828125,34.08203125t-6.2255859375,34.1796875q0,0.9765625,0.341796875,2.294921875t0.341796875,2.34375q0,0.5859375-0.537109375,0.9765625t-1.2939453125,0.6591796875t-1.66015625,0.3662109375t-1.5869140625,0.09765625q-1.513671875,0-3.173828125-0.4638671875t-2.1484375-2.6611328125q-1.708984375-7.6171875-3.1494140625-15.3076171875t-2.6611328125-15.5029296875q-0.390625,1.806640625-0.732421875,3.662109375t-0.634765625,3.759765625q-1.416015625,8.30078125-3.125,16.6015625t-1.708984375,16.796875q0,2.099609375-0.87890625,2.7099609375t-2.978515625,0.6103515625q-1.611328125,0-2.734375-0.537109375q-0.87890625-0.48828125-1.66015625-0.87890625q-0.68359375-0.390625-1.2451171875-0.9033203125t-0.5615234375-1.0009765625q-0.78125-10.595703125-1.0986328125-21.044921875t-0.7080078125-21.044921875q-0.390625-9.521484375-1.1474609375-19.0185546875t-1.6845703125-18.8720703125z M288.56884765625,127.490234375q0-0.9765625,0.2197265625-2.587890625t0.5126953125-3.1982421875t0.68359375-2.9541015625t0.927734375-1.7578125q0.390625-0.390625,1.3427734375-0.78125t2.001953125-0.5615234375t1.953125,0.146484375t1.0986328125,1.2939453125q-0.68359375,0.87890625-1.2451171875,3.0029296875t-0.8544921875,4.7119140625q-0.244140625,2.197265625-0.244140625,4.541015625l0,0.830078125q0.048828125,2.734375,0.48828125,5.029296875t1.3427734375,3.7841796875t2.5146484375,1.4892578125q3.41796875,0,6.25-3.1494140625t5.029296875-7.6904296875t3.857421875-9.6435546875t2.83203125-8.9111328125q0.29296875-1.123046875,1.3916015625-1.513671875t2.3681640625-0.2685546875t2.2705078125,0.6103515625t1.1962890625,1.171875q-0.9765625,8.203125-1.5380859375,16.40625t-0.5615234375,16.50390625q0,1.611328125,0.146484375,2.9541015625t-0.146484375,2.294921875t-1.2939453125,1.513671875t-3.1982421875,0.5615234375q-0.48828125,0-1.2451171875-0.09765625t-1.5625-0.3173828125t-1.3671875-0.6591796875t-0.5615234375-1.025390625q0-3.61328125,0.2685546875-7.421875t0.7568359375-7.373046875q-1.318359375,1.904296875-2.9052734375,3.7841796875t-3.4912109375,3.3935546875t-4.1015625,2.4169921875t-4.736328125,0.9033203125q-3.61328125,0-5.6884765625-1.708984375t-3.125-4.2724609375t-1.318359375-5.5908203125t-0.2685546875-5.859375z"/><path fill="#" d=""/></svg>
